<svg width="1920" height="770" viewBox="0 0 1920 770" fill="none" xmlns="http://www.w3.org/2000/svg">
<rect width="1920" height="770" fill="url(#paint0_linear_218_492)" fill-opacity="0.05"/>
<g opacity="0.1" clip-path="url(#clip0_218_492)">
<path d="M713.5 35.9167C762.293 35.9167 768.381 36.0963 787.524 36.9942C806.65 37.8922 819.67 40.8912 831.127 45.3449C842.979 49.9063 852.964 56.084 862.949 66.0508C872.081 75.0281 879.147 85.8874 883.655 97.873C888.091 109.312 891.108 122.35 892.006 141.476C892.85 160.619 893.083 166.707 893.083 215.5C893.083 264.293 892.904 270.381 892.006 289.524C891.108 308.65 888.091 321.67 883.655 333.127C879.16 345.119 872.092 355.981 862.949 364.949C853.969 374.078 843.111 381.143 831.127 385.655C819.687 390.091 806.65 393.108 787.524 394.006C768.381 394.85 762.293 395.083 713.5 395.083C664.707 395.083 658.619 394.904 639.476 394.006C620.35 393.108 607.33 390.091 595.873 385.655C583.882 381.156 573.021 374.089 564.051 364.949C554.917 355.974 547.851 345.114 543.345 333.127C538.891 321.688 535.892 308.65 534.994 289.524C534.15 270.381 533.917 264.293 533.917 215.5C533.917 166.707 534.096 160.619 534.994 141.476C535.892 122.332 538.891 109.33 543.345 97.873C547.838 85.8801 554.906 75.0178 564.051 66.0508C573.024 56.9142 583.884 49.8476 595.873 45.3449C607.33 40.8912 620.332 37.8922 639.476 36.9942C658.619 36.1502 664.707 35.9167 713.5 35.9167ZM713.5 125.708C689.686 125.708 666.847 135.169 650.008 152.008C633.168 168.847 623.708 191.686 623.708 215.5C623.708 239.314 633.168 262.153 650.008 278.992C666.847 295.832 689.686 305.292 713.5 305.292C737.314 305.292 760.153 295.832 776.992 278.992C793.831 262.153 803.292 239.314 803.292 215.5C803.292 191.686 793.831 168.847 776.992 152.008C760.153 135.169 737.314 125.708 713.5 125.708V125.708ZM830.229 121.219C830.229 115.265 827.864 109.556 823.654 105.346C819.444 101.136 813.735 98.7709 807.781 98.7709C801.828 98.7709 796.118 101.136 791.908 105.346C787.698 109.556 785.333 115.265 785.333 121.219C785.333 127.172 787.698 132.882 791.908 137.092C796.118 141.302 801.828 143.667 807.781 143.667C813.735 143.667 819.444 141.302 823.654 137.092C827.864 132.882 830.229 127.172 830.229 121.219ZM713.5 161.625C727.788 161.625 741.492 167.301 751.595 177.405C761.699 187.508 767.375 201.212 767.375 215.5C767.375 229.789 761.699 243.492 751.595 253.595C741.492 263.699 727.788 269.375 713.5 269.375C699.211 269.375 685.508 263.699 675.404 253.595C665.301 243.492 659.625 229.789 659.625 215.5C659.625 201.212 665.301 187.508 675.404 177.405C685.508 167.301 699.211 161.625 713.5 161.625V161.625Z" fill="#F64348"/>
</g>
<defs>
<linearGradient id="paint0_linear_218_492" x1="960" y1="0" x2="960" y2="770" gradientUnits="userSpaceOnUse">
<stop stop-color="#FC5252"/>
<stop offset="1" stop-color="#FC5252" stop-opacity="0"/>
</linearGradient>
<clipPath id="clip0_218_492">
<rect width="431" height="431" fill="white" transform="translate(498)"/>
</clipPath>
</defs>
</svg>
