<svg width="24" height="24" viewBox="0 0 24 24" fill="none" xmlns="http://www.w3.org/2000/svg">
<g clip-path="url(#clip0_140_297)">
<path d="M16 3.99997C16.2652 3.99997 16.5196 4.10533 16.7071 4.29286C16.8946 4.4804 17 4.73475 17 4.99997V9.19997L22.213 5.54997C22.288 5.49743 22.3759 5.46647 22.4672 5.46047C22.5586 5.45447 22.6498 5.47367 22.731 5.51596C22.8122 5.55826 22.8802 5.62203 22.9276 5.70032C22.9751 5.77862 23.0001 5.86843 23 5.95997V18.04C23.0001 18.1315 22.9751 18.2213 22.9276 18.2996C22.8802 18.3779 22.8122 18.4417 22.731 18.484C22.6498 18.5263 22.5586 18.5455 22.4672 18.5395C22.3759 18.5335 22.288 18.5025 22.213 18.45L17 14.8V19C17 19.2652 16.8946 19.5195 16.7071 19.7071C16.5196 19.8946 16.2652 20 16 20H2C1.73478 20 1.48043 19.8946 1.29289 19.7071C1.10536 19.5195 1 19.2652 1 19V4.99997C1 4.73475 1.10536 4.4804 1.29289 4.29286C1.48043 4.10533 1.73478 3.99997 2 3.99997H16ZM15 5.99997H3V18H15V5.99997ZM7.4 8.82897C7.47611 8.82876 7.55069 8.85027 7.615 8.89097L11.97 11.663C12.0266 11.6991 12.0731 11.749 12.1054 11.8079C12.1376 11.8668 12.1545 11.9328 12.1545 12C12.1545 12.0671 12.1376 12.1332 12.1054 12.1921C12.0731 12.251 12.0266 12.3008 11.97 12.337L7.615 15.11C7.55434 15.1486 7.48438 15.1702 7.41248 15.1725C7.34059 15.1747 7.26941 15.1575 7.20646 15.1227C7.14351 15.0879 7.0911 15.0368 7.05477 14.9747C7.01844 14.9126 6.99951 14.8419 7 14.77V9.22997C7 9.00897 7.18 8.82997 7.4 8.82997V8.82897ZM21 8.83997L17 11.64V12.358L21 15.158V8.83997Z" fill="#F64348"/>
</g>
<defs>
<clipPath id="clip0_140_297">
<rect width="24" height="24" fill="white"/>
</clipPath>
</defs>
</svg>
